<?xml version="1.0" standalone="no"?>
<!DOCTYPE svg PUBLIC "-//W3C//DTD SVG 20010904//EN"
 "http://www.w3.org/TR/2001/REC-SVG-20010904/DTD/svg10.dtd">
<svg version="1.0" xmlns="http://www.w3.org/2000/svg"
 width="203.000000pt" height="148.000000pt" viewBox="0 0 203.000000 148.000000"
 preserveAspectRatio="xMidYMid meet">
<metadata>
Created by potrace 1.10, written by Peter Selinger 2001-2011
</metadata>
<g transform="translate(0.000000,148.000000) scale(0.050000,-0.050000)"
fill="#BB00F0" stroke="none">
<path d="M1693 2508 c-409 -99 -752 -506 -753 -894 0 -111 65 -97 75 16 92
1065 1702 1092 1823 30 15 -132 82 -177 82 -56 0 578 -637 1047 -1227 904z"/>
<path d="M1804 1865 c-41 -35 -155 -240 -142 -254 5 -4 56 -10 114 -14 l106
-7 4 155 c4 165 -8 184 -82 120z"/>
<path d="M1969 1855 c4 -25 9 -98 10 -162 l1 -117 105 14 c132 18 127 8 66
127 -78 156 -203 250 -182 138z"/>
<path d="M2153 1886 c-6 -6 7 -29 28 -52 21 -22 53 -80 72 -128 35 -93 36 -93
176 -38 l59 24 -59 42 c-107 75 -265 163 -276 152z"/>
<path d="M1580 1830 c-49 -26 -116 -69 -149 -96 l-58 -48 97 -33 c53 -18 98
-31 98 -28 1 3 31 61 66 130 73 140 71 142 -54 75z"/>
<path d="M1291 1574 c-32 -49 -95 -217 -119 -319 l-13 -55 168 0 168 0 13 105
c7 58 18 133 24 167 11 58 6 63 -85 100 -53 21 -103 41 -111 44 -7 4 -28 -15
-45 -42z"/>
<path d="M2440 1581 c-38 -20 -76 -33 -84 -29 -32 20 -37 -42 -15 -192 l24
-160 165 0 166 0 -25 108 c-26 113 -112 296 -143 305 -10 3 -49 -12 -88 -32z"/>
<path d="M1618 1478 c-1 -27 -8 -100 -16 -163 l-14 -115 146 0 146 0 0 150 0
150 -67 0 c-38 0 -96 6 -130 13 -56 11 -63 7 -65 -35z"/>
<path d="M2067 1505 l-84 -7 -6 -149 -7 -149 148 0 148 0 -14 143 c-15 162
-21 178 -68 174 -19 -2 -72 -7 -117 -12z"/>
<path d="M873 1447 c-7 -8 -13 -130 -13 -271 l0 -258 105 6 105 6 6 265 5 265
-97 0 c-54 0 -103 -6 -111 -13z"/>
<path d="M2794 1448 c-8 -8 -14 -131 -14 -272 l0 -258 105 6 105 6 0 260 0
260 -91 6 c-50 3 -97 -1 -105 -8z"/>
<path d="M1167 1065 c6 -19 21 -75 33 -125 42 -164 126 -284 171 -242 10 9 54
28 96 42 72 23 76 29 66 87 -7 35 -18 110 -25 168 l-13 105 -169 0 c-151 0
-168 -4 -159 -35z"/>
<path d="M1605 955 c9 -80 23 -150 31 -157 19 -16 245 9 245 27 -1 8 -1 74 -1
145 l0 130 -146 0 -147 0 18 -145z"/>
<path d="M1973 955 l3 -145 117 -12 c146 -14 143 -17 159 157 l14 145 -148 0
-148 0 3 -145z"/>
<path d="M2352 1025 c-6 -41 -16 -115 -23 -165 l-11 -90 95 -40 c53 -22 102
-43 109 -46 35 -15 158 280 158 380 0 32 -19 36 -158 36 l-158 0 -12 -75z"/>
<path d="M940 611 l0 -231 261 0 c239 0 261 3 255 35 -6 30 -35 36 -205 41
-251 7 -254 10 -249 212 4 137 -1 163 -29 168 -29 6 -33 -20 -33 -225z"/>
<path d="M1735 706 c-41 -5 -75 -13 -75 -18 0 -29 106 -212 144 -247 75 -70
87 -53 83 114 -5 171 -1 167 -152 151z"/>
<path d="M1979 606 c-1 -64 -6 -136 -10 -161 -21 -112 104 -18 182 138 61 119
66 110 -66 126 l-105 14 -1 -117z"/>
<path d="M1466 652 c-93 -34 -94 -41 -22 -96 137 -104 315 -172 231 -88 -17
17 -47 71 -68 121 -40 97 -43 99 -141 63z"/>
<path d="M2261 613 c-13 -39 -42 -94 -64 -123 -57 -72 -36 -81 66 -29 200 102
247 164 142 185 -30 6 -70 17 -88 24 -25 10 -39 -5 -56 -57z"/>
</g>
</svg>
