<?xml version="1.0" standalone="no"?>
<!DOCTYPE svg PUBLIC "-//W3C//DTD SVG 20010904//EN"
 "http://www.w3.org/TR/2001/REC-SVG-20010904/DTD/svg10.dtd">
<svg version="1.0" xmlns="http://www.w3.org/2000/svg"
 width="531.000000pt" height="402.000000pt" viewBox="0 0 531.000000 402.000000"
 preserveAspectRatio="xMidYMid meet">
<metadata>
Created by potrace 1.10, written by Peter Selinger 2001-2011
</metadata>
<g transform="translate(0.000000,402.000000) scale(0.100000,-0.100000)"
fill="#BB00F0" stroke="none">
<path d="M2575 3580 c-5 -9 -38 -10 -125 -5 -125 8 -150 4 -129 -22 11 -13 5
-14 -47 -8 -52 6 -61 5 -78 -14 -13 -14 -31 -21 -56 -21 -21 0 -43 -7 -50 -15
-7 -9 -20 -13 -29 -10 -10 3 -26 -2 -37 -10 -10 -8 -27 -15 -37 -15 -10 0 -20
-6 -23 -14 -3 -8 -17 -16 -32 -19 -15 -3 -51 -21 -79 -39 -29 -18 -71 -44 -93
-58 -29 -17 -40 -30 -36 -42 5 -20 -5 -23 -20 -8 -12 12 -79 -44 -207 -173
-87 -89 -87 -89 -112 -73 -20 13 -25 25 -25 61 0 75 -37 120 -84 102 -19 -7
-47 -67 -39 -81 4 -6 6 -102 5 -213 -2 -179 0 -203 15 -219 16 -15 36 -16 204
-11 102 4 197 11 210 16 13 5 34 23 47 40 l23 31 -28 35 c-25 32 -33 35 -79
35 -28 0 -67 -7 -86 -15 -23 -9 -45 -11 -64 -6 -44 11 -43 48 2 102 47 56 153
165 199 204 55 45 65 56 65 64 0 4 19 17 42 27 63 28 100 62 93 85 -5 13 -1
19 10 19 12 0 15 -6 10 -20 -7 -23 10 -27 34 -7 9 7 50 28 91 46 41 18 87 39
102 47 14 8 42 14 61 14 19 0 40 7 47 15 7 8 29 15 50 15 21 0 51 7 66 15 41
21 460 21 519 0 22 -8 59 -15 81 -15 28 0 44 -5 48 -15 3 -9 18 -15 38 -15 19
0 44 -7 56 -16 17 -12 36 -14 75 -10 39 5 46 4 29 -4 -24 -10 -22 -30 3 -30
11 0 90 -39 170 -84 142 -80 393 -320 435 -416 6 -14 22 -38 34 -55 26 -35
106 -198 106 -217 0 -7 9 -26 20 -43 11 -16 20 -41 20 -55 0 -14 7 -34 15 -44
8 -11 15 -35 15 -53 0 -19 6 -46 14 -61 8 -16 16 -79 19 -156 8 -157 24 -199
76 -204 24 -3 40 3 58 20 22 20 24 29 20 78 -2 30 -9 73 -15 95 -7 22 -12 72
-12 110 0 41 -7 80 -15 95 -8 14 -14 35 -15 48 0 27 -38 143 -51 157 -5 5 -9
21 -9 37 0 17 -7 31 -20 38 -11 6 -20 18 -20 27 0 27 -23 86 -46 118 -11 17
-24 39 -28 50 -4 11 -18 33 -31 50 l-24 29 -10 -24 c-10 -23 -10 -23 -9 10 2
41 -16 80 -37 80 -8 0 -15 -4 -15 -10 0 -5 -5 -10 -11 -10 -8 0 -8 4 -1 13 5
6 7 19 3 29 -7 20 -142 178 -151 178 -4 0 -29 22 -56 50 -27 27 -57 50 -67 50
-11 0 -32 12 -47 28 -68 66 -153 115 -185 106 -15 -4 -16 -3 -6 4 17 12 6 32
-18 32 -10 0 -24 7 -31 15 -7 8 -23 15 -35 15 -12 0 -28 7 -35 15 -7 8 -22 15
-34 15 -11 0 -29 7 -39 14 -9 7 -27 11 -40 9 -13 -3 -32 4 -47 17 -18 16 -33
20 -56 17 -20 -3 -40 0 -54 10 -24 17 -26 17 -226 28 -98 6 -133 4 -139 -5z
m-500 -120 c4 -6 -6 -10 -22 -10 -22 0 -25 2 -13 10 19 12 27 12 35 0z m-215
-120 c0 -5 -9 -10 -21 -10 -11 0 -17 5 -14 10 3 6 13 10 21 10 8 0 14 -4 14
-10z m-50 -40 c0 -5 -6 -10 -14 -10 -8 0 -18 5 -21 10 -3 6 3 10 14 10 12 0
21 -4 21 -10z m-485 -150 c-3 -5 -13 -10 -21 -10 -8 0 -14 5 -14 10 0 6 9 10
21 10 11 0 17 -4 14 -10z m215 -110 c0 -5 -10 -10 -22 -10 -19 0 -20 2 -8 10
19 13 30 13 30 0z m-208 -321 c16 -8 18 -13 8 -19 -17 -11 -40 -1 -40 16 0 17
5 17 32 3z m2678 -164 c0 -8 -4 -15 -10 -15 -5 0 -10 7 -10 15 0 8 5 15 10 15
6 0 10 -7 10 -15z m140 -555 c0 -11 -2 -20 -3 -20 -2 0 -12 9 -22 20 -18 19
-17 20 3 20 15 0 22 -6 22 -20z"/>
<path d="M2695 2737 c-148 -150 -272 -276 -275 -282 -3 -6 -36 -40 -75 -75
-127 -117 -365 -365 -365 -380 0 -24 29 -60 48 -60 16 -1 82 -23 145 -48 16
-7 41 -12 56 -12 16 0 34 -6 40 -14 12 -14 84 -36 120 -36 12 0 30 -9 41 -20
11 -11 29 -20 39 -20 11 0 27 -10 35 -21 13 -19 12 -26 -16 -78 -16 -31 -34
-60 -38 -66 -4 -5 -13 -28 -20 -50 -7 -22 -24 -58 -37 -80 -22 -37 -43 -81
-93 -191 -11 -22 -26 -47 -35 -54 -8 -7 -15 -20 -15 -30 0 -10 -7 -23 -15 -30
-8 -7 -15 -20 -15 -30 0 -10 -7 -23 -15 -30 -8 -7 -15 -23 -15 -36 0 -13 -4
-24 -10 -24 -15 0 -12 -28 6 -55 12 -19 25 -25 51 -25 33 0 51 15 224 189 104
104 189 194 189 200 0 6 5 11 11 11 7 0 81 71 166 158 85 86 157 160 161 164
4 4 65 64 135 133 123 121 128 128 125 163 -3 32 -7 37 -32 40 -28 3 -28 3
-22 -32 6 -29 4 -36 -8 -36 -13 0 -14 9 -9 45 5 42 4 45 -21 55 -15 5 -38 7
-52 4 -14 -4 -24 -2 -24 5 0 5 -19 15 -42 21 -22 7 -57 20 -77 31 -20 10 -52
19 -72 19 -21 0 -42 7 -50 16 -7 8 -21 13 -32 10 -25 -6 -47 3 -47 20 0 8 -6
14 -14 14 -7 0 -19 6 -25 14 -13 16 -15 11 54 131 19 33 46 85 61 115 14 30
33 63 41 72 8 9 12 21 9 26 -3 5 3 20 13 33 10 13 26 42 36 64 10 22 25 48 33
58 13 14 13 24 4 54 -13 43 -8 55 12 27 14 -18 15 -18 25 8 5 14 15 29 20 33
6 3 11 17 11 31 0 14 7 27 15 30 22 9 18 48 -8 72 -51 48 -60 42 -352 -251z
m265 179 c0 -15 -18 -31 -26 -23 -7 7 7 37 17 37 5 0 9 -6 9 -14z m-292 -474
c2 -13 -5 -34 -15 -45 -10 -12 -25 -35 -32 -52 -7 -16 -20 -44 -28 -61 -27
-57 -33 -107 -17 -131 8 -13 22 -23 32 -23 10 0 26 -6 37 -14 11 -7 34 -16 50
-19 17 -3 62 -18 100 -33 39 -15 83 -27 100 -27 18 0 35 -7 43 -19 9 -12 23
-18 41 -17 61 7 68 -37 16 -98 -19 -23 -35 -48 -35 -57 0 -9 -7 -16 -15 -16
-19 0 -265 -239 -265 -257 0 -7 -4 -13 -9 -13 -6 0 -22 -11 -36 -24 -29 -27
-60 -25 -76 5 -7 15 -2 29 26 69 19 27 35 61 35 74 0 13 7 26 15 30 8 3 15 15
15 27 0 11 10 29 22 39 19 15 21 21 11 42 -9 20 -26 32 -103 68 -9 4 -30 11
-49 15 -18 4 -44 13 -59 21 -15 8 -37 14 -49 14 -12 0 -25 5 -28 10 -3 6 -19
10 -34 10 -15 0 -36 7 -47 15 -10 8 -29 15 -42 15 -31 0 -79 47 -63 63 6 6 11
21 11 33 0 16 5 21 18 18 11 -3 38 20 82 71 36 41 71 75 78 75 6 0 12 4 12 9
0 5 41 50 90 101 50 51 90 97 90 102 0 5 17 8 38 6 30 -2 38 -7 40 -26z m43
-99 c-9 -17 -10 -17 -16 0 -4 9 -4 25 0 35 6 16 7 16 16 0 7 -12 7 -24 0 -35z
m-271 6 c0 -5 -9 -9 -20 -9 -19 0 -26 11 -14 23 8 8 34 -3 34 -14z m233 -25
c11 -11 -3 -24 -18 -18 -8 4 -12 10 -9 15 6 11 18 12 27 3z m-373 -54 c0 -11
-4 -20 -10 -20 -5 0 -10 9 -10 20 0 11 5 20 10 20 6 0 10 -9 10 -20z m-30 -50
c0 -5 -7 -10 -15 -10 -8 0 -15 5 -15 10 0 6 7 10 15 10 8 0 15 -4 15 -10z
m450 -60 c0 -13 -11 -13 -30 0 -12 8 -11 10 8 10 12 0 22 -4 22 -10z m-72
-363 c3 -16 1 -17 -17 -5 -25 16 -27 31 -4 26 10 -2 19 -11 21 -21z m-118
-169 c-1 -15 -24 -48 -34 -48 -12 0 -6 48 7 53 21 9 27 8 27 -5z m240 -83 c0
-8 -7 -15 -16 -15 -14 0 -14 3 -4 15 7 8 14 15 16 15 2 0 4 -7 4 -15z m-230
-229 c0 -15 -18 -31 -26 -23 -7 7 7 37 17 37 5 0 9 -6 9 -14z"/>
<path d="M1095 2050 c-36 -5 -41 -9 -55 -47 -12 -35 -12 -48 -1 -78 7 -19 13
-74 13 -123 0 -55 6 -95 14 -109 8 -12 14 -39 14 -59 0 -20 6 -48 14 -62 7
-15 24 -59 37 -99 12 -39 28 -71 33 -70 6 1 10 -10 8 -27 -2 -15 4 -36 12 -45
8 -9 24 -36 35 -61 39 -83 135 -230 152 -230 5 0 9 -6 9 -14 0 -7 27 -40 60
-72 33 -33 60 -62 60 -66 0 -10 86 -90 144 -134 35 -26 52 -33 69 -28 19 6 20
5 9 -9 -11 -12 -8 -18 14 -36 15 -12 31 -21 36 -21 6 0 23 -11 40 -25 16 -14
36 -25 43 -25 8 0 19 -9 25 -20 7 -13 21 -20 40 -20 17 0 30 -4 30 -10 0 -19
93 -51 129 -45 28 5 33 4 28 -9 -5 -11 1 -17 21 -22 15 -3 42 -12 60 -20 18
-8 49 -14 69 -14 20 0 45 -7 55 -16 16 -15 52 -17 301 -17 273 -1 285 0 325
21 24 12 53 22 66 22 13 0 36 6 52 14 15 8 39 12 54 9 19 -3 29 0 33 11 4 10
18 16 41 16 21 0 36 6 40 15 3 8 13 15 21 15 20 0 126 57 141 76 6 8 27 21 47
29 20 8 39 20 42 26 4 6 38 30 75 54 38 24 115 91 173 149 93 95 137 125 137
96 0 -6 9 -19 21 -31 19 -19 19 -22 5 -38 -22 -24 -20 -30 18 -76 29 -33 38
-38 53 -29 38 22 51 68 46 166 -2 51 -5 109 -5 128 -1 45 11 150 18 162 7 11
-21 54 -43 67 -27 14 -315 -6 -398 -27 -81 -21 -92 -40 -53 -92 l23 -31 75 6
c41 4 79 11 84 16 14 13 52 11 64 -4 22 -26 24 -64 5 -78 -10 -8 -26 -25 -34
-39 -19 -29 -170 -180 -226 -226 -21 -17 -52 -39 -70 -47 -17 -9 -33 -20 -35
-24 -1 -5 -34 -24 -73 -43 -38 -19 -76 -40 -83 -47 -7 -7 -20 -13 -28 -13 -9
0 -25 -5 -37 -12 -40 -23 -92 -40 -137 -47 -35 -5 -45 -10 -44 -24 2 -15 -5
-17 -60 -11 -50 5 -64 3 -75 -10 -12 -14 -45 -16 -261 -16 -208 0 -250 2 -260
15 -8 9 -30 15 -59 15 -25 0 -55 7 -65 15 -11 8 -34 15 -52 15 -17 0 -37 7
-44 15 -7 8 -19 15 -27 15 -8 0 -27 6 -41 14 -15 8 -71 36 -124 61 -54 26
-113 57 -133 71 -20 13 -40 24 -46 24 -5 0 -12 7 -15 15 -3 8 -25 28 -48 45
-79 59 -192 179 -241 259 -6 9 -25 36 -43 61 -19 25 -47 72 -63 105 -16 33
-33 67 -38 75 -23 42 -39 81 -55 135 -10 33 -22 74 -28 90 -6 17 -13 50 -17
75 -4 25 -13 55 -20 68 -7 14 -12 65 -12 138 0 83 -4 124 -14 144 -19 36 -21
37 -70 30z m2825 -761 c0 -5 -7 -9 -15 -9 -15 0 -20 12 -9 23 8 8 24 -1 24
-14z m-2520 -213 c0 -8 -4 -18 -10 -21 -5 -3 -10 3 -10 14 0 12 5 21 10 21 6
0 10 -6 10 -14z m575 -416 c-3 -5 -12 -10 -20 -10 -8 0 -17 5 -20 10 -4 6 5
10 20 10 15 0 24 -4 20 -10z m1050 -180 c-3 -5 -15 -10 -26 -10 -10 0 -19 5
-19 10 0 6 12 10 26 10 14 0 23 -4 19 -10z"/>
</g>
</svg>
