<?xml version="1.0" standalone="no"?>
<!DOCTYPE svg PUBLIC "-//W3C//DTD SVG 20010904//EN"
 "http://www.w3.org/TR/2001/REC-SVG-20010904/DTD/svg10.dtd">
<svg version="1.0" xmlns="http://www.w3.org/2000/svg"
 width="222.000000pt" height="183.000000pt" viewBox="0 0 222.000000 183.000000"
 preserveAspectRatio="xMidYMid meet">
<metadata>
Created by potrace 1.10, written by Peter Selinger 2001-2011
</metadata>
<g transform="translate(0.000000,183.000000) scale(0.100000,-0.100000)"
fill="#BB00F0" stroke="none">
<path d="M1070 1624 c-25 -7 -59 -14 -76 -14 -17 0 -37 -7 -44 -15 -7 -8 -37
-27 -68 -42 -34 -17 -63 -40 -74 -60 -11 -18 -27 -35 -36 -38 -22 -7 -54 -53
-93 -135 -25 -52 -33 -83 -38 -155 l-6 -90 -35 -6 c-19 -4 -61 -12 -92 -18
-123 -22 -207 -101 -258 -241 -43 -117 -1 -254 111 -363 61 -61 183 -97 323
-97 92 0 106 5 106 39 0 46 -14 51 -142 51 -101 0 -125 3 -161 21 -23 12 -44
25 -47 28 -3 4 -17 14 -32 23 -14 10 -40 43 -57 74 -41 76 -43 167 -7 246 29
61 38 74 86 109 50 37 93 49 175 49 90 0 101 11 108 100 9 113 24 175 57 233
18 32 37 60 44 65 7 4 22 22 35 40 15 22 50 45 109 74 72 34 100 42 164 46
167 10 308 -70 401 -226 26 -45 46 -91 47 -108 0 -16 2 -64 6 -106 8 -104 20
-116 116 -116 83 -1 110 -9 170 -52 96 -70 139 -212 96 -325 -22 -59 -47 -90
-108 -132 -62 -42 -134 -57 -236 -49 -68 5 -85 3 -98 -10 -21 -20 -20 -37 2
-58 16 -14 35 -15 123 -11 169 9 247 39 316 122 55 67 73 95 73 116 0 11 7 34
16 53 11 22 14 50 12 86 -4 45 -11 71 -35 133 -16 42 -84 115 -139 152 -35 23
-139 51 -168 46 -41 -8 -56 12 -56 76 0 167 -132 359 -308 449 -23 12 -53 22
-66 22 -13 0 -40 7 -59 15 -44 18 -98 18 -157 -1z"/>
<path d="M1118 719 c-23 -40 -25 -220 -3 -259 15 -26 19 -77 9 -104 -11 -28
-42 -17 -80 29 -40 50 -53 54 -71 25 -17 -27 -9 -43 61 -114 34 -34 72 -77 85
-94 l24 -31 31 35 c17 19 61 65 99 102 37 38 67 75 67 83 0 9 -11 21 -25 27
-24 11 -29 8 -70 -33 -24 -25 -48 -45 -54 -45 -13 0 -31 42 -31 73 0 12 7 35
15 51 11 20 15 59 15 135 -1 89 -4 110 -19 129 -25 29 -33 28 -53 -9z"/>
</g>
</svg>
