<?xml version="1.0" standalone="no"?>
<!DOCTYPE svg PUBLIC "-//W3C//DTD SVG 20010904//EN"
 "http://www.w3.org/TR/2001/REC-SVG-20010904/DTD/svg10.dtd">
<svg version="1.0" xmlns="http://www.w3.org/2000/svg"
 width="207.000000pt" height="207.000000pt" viewBox="0 0 207.000000 207.000000"
 preserveAspectRatio="xMidYMid meet">
<metadata>
Created by potrace 1.10, written by Peter Selinger 2001-2011
</metadata>
<g transform="translate(0.000000,207.000000) scale(0.100000,-0.100000)"
fill="#BB00F0" stroke="none">
<path d="M1090 1953 c-125 -43 -211 -107 -251 -183 -32 -62 -39 -64 -104 -35
-68 30 -111 31 -183 6 -118 -41 -219 -198 -190 -295 8 -27 7 -38 -7 -59 -9
-15 -25 -27 -34 -27 -19 0 -120 -103 -138 -141 -23 -48 -43 -129 -43 -171 1
-114 85 -255 192 -321 29 -18 73 -23 82 -9 11 18 -8 51 -35 61 -40 14 -127 98
-149 144 -11 22 -22 72 -26 112 -5 58 -3 79 12 111 44 94 99 152 177 187 47
21 48 23 42 57 -17 98 -17 127 3 171 21 45 81 101 127 119 34 13 165 13 165 0
0 -13 38 -37 73 -45 24 -7 29 -3 42 30 19 44 82 137 102 148 8 5 30 22 48 39
19 16 39 27 45 23 6 -4 20 1 31 11 16 14 38 18 117 18 90 1 101 -1 162 -32
104 -52 167 -120 191 -202 7 -25 17 -51 22 -57 5 -7 8 -43 7 -80 -5 -115 -2
-119 88 -127 49 -4 110 -30 164 -68 29 -20 88 -101 88 -121 0 -7 7 -21 15 -31
11 -14 15 -45 15 -104 0 -75 -3 -90 -31 -143 -33 -61 -91 -121 -147 -151 -41
-22 -46 -68 -8 -68 13 0 35 6 50 13 64 34 160 154 173 218 3 16 10 32 14 35
16 9 10 153 -8 207 -17 54 -24 67 -61 127 -38 63 -124 118 -222 143 -63 16
-71 24 -69 71 7 145 -97 322 -221 379 -131 59 -229 72 -320 40z"/>
<path d="M565 1293 c-33 -2 -64 -8 -68 -12 -14 -14 -27 -144 -16 -157 6 -8 6
-36 -1 -79 -18 -112 -71 -102 585 -104 365 -1 572 2 584 8 17 10 19 23 17 166
-1 125 -5 158 -16 165 -9 6 -221 10 -500 10 -267 0 -494 2 -505 3 -11 2 -47 2
-80 0z m596 -53 c320 0 419 -3 427 -13 17 -20 19 -211 3 -231 -12 -15 -61 -16
-517 -16 -277 0 -510 3 -519 6 -20 8 -22 226 -2 242 14 12 114 21 162 15 17
-2 217 -4 446 -3z"/>
<path d="M866 1187 c-17 -13 -17 -14 -1 -31 10 -9 25 -16 34 -14 20 4 27 38 9
49 -18 12 -21 11 -42 -4z"/>
<path d="M984 1186 c-10 -26 4 -48 28 -44 17 2 23 10 23 28 0 18 -6 26 -23 28
-13 2 -25 -3 -28 -12z"/>
<path d="M1112 1191 c-20 -12 -10 -45 14 -49 29 -4 51 23 34 43 -14 17 -29 19
-48 6z"/>
<path d="M1238 1193 c-24 -6 -23 -30 3 -43 22 -12 49 1 49 25 0 10 -26 29 -33
24 -1 -1 -10 -3 -19 -6z"/>
<path d="M1362 1191 c-20 -12 -10 -45 14 -49 29 -4 51 23 34 43 -14 17 -29 19
-48 6z"/>
<path d="M1487 1192 c-11 -2 -17 -11 -15 -20 4 -20 59 -24 65 -5 5 15 -26 31
-50 25z"/>
<path d="M638 1167 c-33 -27 -36 -58 -7 -98 18 -26 26 -29 74 -29 53 0 55 1
74 38 19 38 19 39 1 68 -33 49 -96 58 -142 21z m96 -46 c9 -13 -3 -39 -21 -45
-33 -13 -57 36 -31 62 11 11 41 2 52 -17z"/>
<path d="M861 1071 c-24 -15 -5 -43 26 -39 20 2 29 9 31 26 3 17 -1 22 -20 22
-13 0 -29 -4 -37 -9z"/>
<path d="M987 1074 c-4 -4 -7 -16 -7 -26 0 -15 6 -19 28 -16 19 2 27 9 27 23
0 20 -33 33 -48 19z"/>
<path d="M1104 1065 c-9 -22 9 -37 37 -33 16 2 24 10 24 23 0 26 -52 35 -61
10z"/>
<path d="M1231 1071 c-23 -15 -5 -43 26 -39 20 2 28 9 28 23 0 22 -31 31 -54
16z"/>
<path d="M1353 1073 c-20 -7 -15 -31 7 -38 26 -8 60 3 60 20 0 20 -37 31 -67
18z"/>
<path d="M1481 1071 c-17 -11 -7 -41 13 -41 25 0 46 12 46 25 0 21 -35 31 -59
16z"/>
<path d="M896 892 c-250 -1 -394 -6 -402 -13 -15 -12 -16 -317 0 -326 5 -4 23
-8 40 -9 49 -5 1118 -5 1123 -1 2 3 5 77 7 166 3 114 1 163 -7 169 -18 11
-333 17 -761 14z m270 -43 c321 0 405 -3 420 -13 16 -12 18 -27 15 -127 -1
-63 -4 -115 -6 -117 -6 -6 -989 -9 -1019 -2 l-31 6 -3 113 c-2 76 1 118 9 127
8 10 30 14 71 13 32 -1 62 1 66 5 4 4 23 5 42 1 19 -4 216 -7 436 -6z"/>
<path d="M652 779 c-39 -26 -49 -57 -28 -97 17 -32 34 -42 74 -42 51 0 73 12
88 48 13 31 13 37 -1 52 -8 9 -15 22 -15 29 0 12 -41 31 -68 31 -9 0 -32 -10
-50 -21z m83 -48 c12 -39 -11 -60 -49 -45 -16 6 -22 45 -9 57 14 14 52 7 58
-12z"/>
<path d="M862 773 c4 -35 43 -45 53 -14 9 28 -1 41 -31 41 -22 0 -25 -4 -22
-27z"/>
<path d="M982 773 c2 -22 8 -28 28 -28 20 0 26 6 28 28 3 24 0 27 -28 27 -28
0 -31 -3 -28 -27z"/>
<path d="M1100 776 c0 -16 7 -27 20 -31 27 -9 40 1 40 31 0 20 -5 24 -30 24
-25 0 -30 -4 -30 -24z"/>
<path d="M1223 784 c-6 -16 19 -44 39 -44 11 0 30 39 23 50 -10 16 -55 11 -62
-6z"/>
<path d="M1346 791 c-8 -13 3 -38 20 -45 31 -12 69 28 42 46 -17 11 -55 10
-62 -1z"/>
<path d="M1474 789 c-9 -16 21 -43 40 -36 9 4 16 16 16 27 0 15 -7 20 -24 20
-14 0 -28 -5 -32 -11z"/>
<path d="M984 676 c-11 -29 0 -51 26 -51 21 0 25 5 25 30 0 24 -5 31 -23 33
-13 2 -24 -3 -28 -12z"/>
<path d="M1103 674 c-8 -22 9 -49 33 -49 30 0 27 59 -4 63 -14 2 -25 -3 -29
-14z"/>
<path d="M1236 674 c-9 -8 -16 -17 -16 -19 0 -7 32 -35 40 -35 18 0 32 40 19
56 -15 18 -24 18 -43 -2z"/>
<path d="M1363 683 c-19 -7 -16 -50 4 -57 10 -4 24 1 37 13 16 17 17 22 6 35
-13 16 -25 18 -47 9z"/>
<path d="M1493 683 c-16 -6 -17 -49 -1 -59 6 -4 19 3 30 16 14 17 16 26 7 36
-12 15 -16 16 -36 7z"/>
<path d="M860 656 c0 -14 4 -28 10 -31 16 -10 50 14 50 35 0 16 -7 20 -30 20
-25 0 -30 -4 -30 -24z"/>
<path d="M496 471 c-14 -16 -16 -39 -14 -172 l3 -154 579 -3 c392 -1 583 1
591 8 10 8 13 52 13 161 -1 140 -2 151 -22 164 -17 13 -104 15 -577 15 -529 0
-557 -1 -573 -19z m1106 -43 c4 -7 6 -19 3 -26 -3 -8 -5 -54 -5 -102 0 -78 -2
-91 -19 -100 -23 -12 -970 -17 -1014 -5 l-28 7 3 116 c3 112 4 116 26 122 13
3 249 4 524 3 392 -2 503 -5 510 -15z"/>
<path d="M873 403 c-7 -2 -13 -16 -13 -29 0 -20 5 -24 30 -24 22 0 30 5 30 18
0 17 -18 43 -29 41 -4 0 -12 -3 -18 -6z"/>
<path d="M997 399 c-18 -10 -23 -44 -9 -53 16 -10 52 7 52 24 0 26 -22 40 -43
29z"/>
<path d="M1107 393 c-4 -3 -7 -15 -7 -25 0 -13 8 -18 28 -18 36 0 44 8 31 31
-10 19 -39 25 -52 12z"/>
<path d="M1230 385 c-6 -8 -9 -19 -5 -25 8 -12 65 -14 65 -1 0 39 -36 55 -60
26z"/>
<path d="M1356 384 c-21 -21 -12 -34 24 -34 34 0 47 15 30 35 -16 19 -35 19
-54 -1z"/>
<path d="M1483 393 c-7 -2 -13 -13 -13 -24 0 -14 7 -19 30 -19 23 0 30 5 30
19 0 15 -23 35 -33 30 -1 0 -8 -3 -14 -6z"/>
<path d="M655 378 c-30 -16 -45 -39 -45 -70 0 -22 9 -33 40 -53 58 -37 78 -32
133 32 17 20 17 23 3 52 -9 17 -25 35 -35 41 -25 13 -71 12 -96 -2z m79 -54
c9 -34 -4 -47 -38 -38 -18 4 -26 13 -26 28 0 28 8 36 36 36 15 0 24 -8 28 -26z"/>
<path d="M873 283 c-7 -2 -13 -16 -13 -29 0 -20 5 -24 30 -24 22 0 30 5 30 18
0 17 -18 43 -29 41 -4 0 -12 -3 -18 -6z"/>
<path d="M987 283 c-4 -3 -7 -17 -7 -30 0 -19 5 -23 30 -23 27 0 30 3 30 30 0
25 -4 30 -23 30 -13 0 -27 -3 -30 -7z"/>
<path d="M1110 275 c-18 -21 -5 -45 24 -45 31 0 40 14 26 40 -13 24 -33 26
-50 5z"/>
<path d="M1232 269 c-17 -26 -4 -42 29 -37 18 2 24 9 24 28 0 33 -35 39 -53 9z"/>
<path d="M1360 270 c-14 -26 -5 -40 26 -40 22 0 25 4 22 27 -4 34 -32 42 -48
13z"/>
<path d="M1483 273 c-7 -2 -13 -13 -13 -24 0 -14 7 -19 29 -19 35 0 48 15 31
35 -13 15 -25 17 -47 8z"/>
</g>
</svg>
