<?xml version="1.0" standalone="no"?>
<!DOCTYPE svg PUBLIC "-//W3C//DTD SVG 20010904//EN"
 "http://www.w3.org/TR/2001/REC-SVG-20010904/DTD/svg10.dtd">
<svg version="1.0" xmlns="http://www.w3.org/2000/svg"
 width="69.000000pt" height="62.000000pt" viewBox="0 0 69.000000 62.000000"
 preserveAspectRatio="xMidYMid meet">
<metadata>
Created by potrace 1.10, written by Peter Selinger 2001-2011
</metadata>
<g transform="translate(0.000000,62.000000) scale(0.050000,-0.050000)"
fill="#BB00F0" stroke="none">
<path d="M490 1089 c-96 -50 -169 -131 -191 -211 -14 -55 -33 -77 -71 -87
-250 -62 -247 -396 4 -443 37 -7 68 -25 68 -39 0 -15 16 -36 35 -47 33 -19 33
-21 -1 -47 -27 -20 -35 -47 -30 -106 l6 -79 345 -5 345 -6 0 98 c0 76 -8 102
-35 112 -33 13 -33 15 0 33 19 11 35 32 35 47 0 15 25 33 55 40 278 70 268
473 -14 521 -49 8 -83 26 -90 48 -47 148 -314 247 -461 171z m313 -71 c32 -23
76 -77 98 -120 35 -69 48 -78 111 -78 161 0 257 -191 167 -334 -46 -73 -179
-116 -179 -57 0 37 -66 57 -139 41 -70 -15 -100 28 -82 120 13 66 33 70 196
40 69 -12 87 -9 97 18 26 67 -23 89 -135 59 -57 -14 -125 -23 -150 -18 -48 9
-58 -11 -49 -99 8 -83 -17 -133 -64 -126 -41 6 -44 17 -48 189 -4 200 16 236
102 181 56 -37 92 -22 92 38 0 58 -48 83 -90 48 -16 -14 -55 -21 -86 -16 l-56
8 5 -191 c7 -230 -2 -265 -60 -257 -34 5 -43 20 -44 76 -1 58 -9 71 -48 77
-27 4 -67 19 -91 35 -53 35 -124 -5 -104 -59 14 -36 104 -45 124 -13 15 24 31
25 66 3 32 -20 11 -125 -23 -121 -77 9 -113 -4 -113 -43 0 -44 -36 -43 -133 4
-134 66 -101 276 49 308 113 25 108 20 132 131 39 178 299 267 455 156z m33
-596 c126 -2 127 -2 120 -57 l-6 -55 -300 0 c-273 0 -300 3 -306 36 -15 76 5
85 189 82 97 -2 234 -5 303 -6z m54 -182 c-7 -11 -110 -20 -240 -20 -130 0
-233 9 -240 20 -8 13 77 20 240 20 163 0 248 -7 240 -20z m66 -115 l-6 -55
-295 -6 c-250 -4 -298 0 -308 25 -31 83 -2 91 314 91 l302 0 -7 -55z"/>
</g>
</svg>
