<?xml version="1.0" standalone="no"?>
<!DOCTYPE svg PUBLIC "-//W3C//DTD SVG 20010904//EN"
 "http://www.w3.org/TR/2001/REC-SVG-20010904/DTD/svg10.dtd">
<svg version="1.0" xmlns="http://www.w3.org/2000/svg"
 width="204.000000pt" height="198.000000pt" viewBox="0 0 204.000000 198.000000"
 preserveAspectRatio="xMidYMid meet">
<metadata>
Created by potrace 1.10, written by Peter Selinger 2001-2011
</metadata>
<g transform="translate(0.000000,198.000000) scale(0.100000,-0.100000)"
fill="#BB00F0" stroke="none">
<path d="M946 1822 c-377 -2 -492 -5 -498 -15 -4 -6 -8 -80 -8 -164 0 -146 1
-153 22 -164 15 -8 157 -11 517 -10 273 1 521 1 552 1 34 0 61 5 66 12 16 20
16 328 0 334 -21 8 -145 9 -651 6z m591 -64 c15 -12 14 -226 -1 -236 -10 -6
-27 -8 -96 -11 -59 -3 -924 10 -930 14 -4 2 -7 54 -6 115 1 86 5 113 16 120 8
5 208 9 458 8 244 0 446 2 449 6 8 8 96 -5 110 -16z"/>
<path d="M565 1720 c-11 -17 30 -54 50 -46 27 10 15 50 -17 54 -14 2 -29 -2
-33 -8z"/>
<path d="M686 1722 c-10 -17 29 -56 48 -49 28 11 16 51 -16 55 -14 2 -29 -1
-32 -6z"/>
<path d="M806 1722 c-10 -17 29 -56 48 -49 28 11 16 51 -16 55 -14 2 -29 -1
-32 -6z"/>
<path d="M936 1721 c-3 -5 -3 -16 0 -24 13 -35 67 -29 62 7 -3 22 -51 36 -62
17z"/>
<path d="M1056 1721 c-8 -12 15 -51 29 -51 21 0 37 18 33 36 -4 21 -52 32 -62
15z"/>
<path d="M1185 1720 c-9 -15 4 -50 19 -50 18 0 49 37 41 49 -8 14 -52 14 -60
1z"/>
<path d="M1326 1687 c-26 -44 -26 -47 -12 -76 21 -41 38 -48 94 -41 45 5 48 7
62 47 14 42 14 43 -17 73 -18 18 -47 33 -66 37 -33 5 -36 3 -61 -40z m89 -23
c23 -23 15 -48 -17 -52 -31 -4 -48 29 -28 53 16 19 25 19 45 -1z"/>
<path d="M572 1588 c4 -31 53 -34 53 -3 0 15 -8 21 -28 23 -25 3 -28 0 -25
-20z"/>
<path d="M687 1604 c-13 -13 14 -45 36 -42 32 4 30 42 -3 46 -14 2 -29 0 -33
-4z"/>
<path d="M805 1600 c-10 -17 16 -41 39 -38 13 2 22 12 24 26 3 19 -1 22 -27
22 -16 0 -33 -5 -36 -10z"/>
<path d="M930 1597 c0 -8 9 -22 20 -32 19 -17 22 -17 37 -3 9 9 13 24 10 32
-8 20 -67 22 -67 3z"/>
<path d="M1060 1593 c0 -33 17 -49 37 -37 28 18 23 48 -9 52 -22 3 -28 -1 -28
-15z"/>
<path d="M1182 1588 c4 -31 53 -34 53 -3 0 15 -8 21 -28 23 -25 3 -28 0 -25
-20z"/>
<path d="M468 1408 l-27 -9 1 -155 c0 -135 2 -156 17 -164 28 -14 1106 -16
1129 -1 11 6 15 47 17 160 4 147 3 152 -18 165 -18 11 -126 13 -557 13 -306 0
-546 -4 -562 -9z m1072 -48 c11 -18 13 -220 2 -237 -9 -14 -81 -16 -562 -15
-469 0 -453 -1 -467 18 -14 19 -16 185 -2 221 8 23 9 23 231 25 543 7 789 3
798 -12z"/>
<path d="M575 1309 c-6 -19 6 -39 25 -39 16 0 31 20 28 36 -5 28 -45 30 -53 3z"/>
<path d="M697 1323 c-14 -14 -6 -42 14 -48 27 -9 43 7 34 34 -6 20 -34 28 -48
14z"/>
<path d="M817 1323 c-14 -14 -6 -42 14 -48 27 -9 43 7 34 34 -6 20 -34 28 -48
14z"/>
<path d="M940 1316 c-7 -9 -10 -23 -6 -31 11 -29 60 -10 54 21 -4 24 -31 29
-48 10z"/>
<path d="M1060 1315 c-10 -12 -10 -18 0 -30 25 -30 67 -7 49 27 -12 22 -32 23
-49 3z"/>
<path d="M1190 1315 c-16 -19 -5 -47 16 -43 27 5 42 37 24 48 -20 13 -26 12
-40 -5z"/>
<path d="M1327 1292 c-33 -35 -34 -48 -2 -95 22 -32 31 -37 64 -37 31 0 44 6
65 31 32 38 33 54 0 96 -34 44 -87 47 -127 5z m87 -28 c20 -19 20 -25 2 -50
-12 -15 -18 -17 -33 -8 -23 14 -28 41 -13 59 16 19 25 19 44 -1z"/>
<path d="M702 1208 c-7 -7 -12 -20 -12 -30 0 -13 8 -18 30 -18 22 0 30 5 30
18 0 17 -18 42 -30 42 -3 0 -11 -5 -18 -12z"/>
<path d="M1069 1201 c-26 -21 -18 -41 16 -41 20 0 35 16 35 40 0 17 -30 18
-51 1z"/>
<path d="M1190 1200 c-16 -30 -12 -40 18 -40 36 0 44 8 32 30 -14 27 -38 32
-50 10z"/>
<path d="M578 1199 c-23 -13 -23 -26 1 -39 27 -14 53 -2 49 24 -3 24 -25 30
-50 15z"/>
<path d="M817 1204 c-14 -14 -7 -42 12 -47 26 -6 44 7 39 29 -3 19 -38 31 -51
18z"/>
<path d="M942 1198 c-23 -23 -14 -39 21 -36 24 2 33 8 35 26 3 17 -1 22 -20
22 -13 0 -29 -5 -36 -12z"/>
<path d="M1670 1221 c0 -23 6 -30 26 -35 37 -10 140 -114 163 -166 25 -56 30
-190 7 -209 -8 -7 -17 -25 -21 -41 -3 -15 -18 -39 -33 -54 -15 -14 -36 -35
-46 -46 -11 -11 -36 -28 -56 -38 -20 -9 -44 -27 -54 -39 -15 -21 -15 -25 -1
-60 12 -27 14 -52 9 -91 -6 -47 -13 -60 -56 -103 -60 -60 -84 -71 -162 -71
-45 0 -65 5 -85 21 -61 49 -98 51 -111 5 -9 -32 -75 -128 -108 -156 -17 -15
-61 -40 -97 -57 -55 -26 -77 -31 -143 -31 -67 0 -86 4 -142 33 -85 42 -99 53
-154 127 -51 69 -66 119 -66 218 0 48 -4 92 -8 98 -4 6 -41 17 -82 24 -108 20
-182 72 -235 165 -39 67 -40 73 -40 160 0 73 4 99 23 138 31 65 105 143 142
150 20 5 31 14 36 31 14 58 -32 61 -97 8 -65 -52 -103 -99 -128 -157 -12 -27
-26 -58 -31 -67 -6 -10 -10 -53 -10 -95 0 -93 30 -182 88 -258 43 -57 142
-120 206 -130 59 -10 66 -20 66 -85 0 -32 7 -71 15 -86 8 -16 15 -37 15 -47 0
-46 92 -168 155 -204 145 -83 271 -92 448 -31 42 14 140 111 169 166 20 38 42
41 98 12 57 -29 109 -25 194 14 58 26 80 43 104 78 17 25 34 57 38 72 3 14 10
29 15 32 13 8 11 78 -3 108 -9 22 -8 29 7 46 10 11 25 20 34 20 21 0 108 96
130 145 44 96 51 119 51 168 0 57 -20 126 -60 207 -4 8 -39 43 -78 78 -54 46
-79 62 -102 62 -26 0 -30 -3 -30 -29z"/>
<path d="M458 1013 c-16 -4 -18 -21 -18 -167 0 -159 0 -163 23 -173 31 -13
1116 -8 1130 6 7 7 11 72 12 167 1 148 0 156 -20 164 -21 8 -1096 11 -1127 3z
m1080 -42 c9 -6 12 -37 10 -122 l-3 -114 -55 -13 c-33 -7 -79 -10 -115 -6 -33
3 -215 5 -405 3 -421 -3 -409 -3 -442 9 l-26 11 1 112 c2 112 2 113 27 120 36
9 993 10 1008 0z"/>
<path d="M573 923 c-22 -8 -14 -32 13 -39 29 -8 49 7 41 30 -6 16 -29 20 -54
9z"/>
<path d="M693 923 c-22 -8 -14 -32 12 -39 32 -8 60 13 44 32 -11 14 -33 17
-56 7z"/>
<path d="M821 921 c-21 -14 -5 -41 24 -41 29 0 45 27 24 41 -8 5 -18 9 -24 9
-5 0 -16 -4 -24 -9z"/>
<path d="M941 921 c-17 -11 -7 -41 14 -41 9 0 25 5 36 11 16 8 18 13 8 25 -13
16 -37 18 -58 5z"/>
<path d="M1060 915 c-24 -29 11 -46 51 -24 16 8 18 13 8 25 -15 18 -43 18 -59
-1z"/>
<path d="M1184 915 c-9 -24 10 -39 41 -31 18 5 25 12 23 24 -4 23 -56 29 -64
7z"/>
<path d="M1320 888 c-24 -40 -25 -47 -3 -78 24 -35 33 -40 79 -40 36 0 45 5
68 35 l27 35 -21 40 c-20 39 -21 40 -75 40 -52 0 -57 -2 -75 -32z m95 -14 c23
-23 15 -48 -18 -52 -32 -4 -44 16 -27 47 13 25 23 26 45 5z"/>
<path d="M582 804 c-18 -13 -21 -19 -11 -30 15 -19 48 -18 56 2 3 8 -1 22 -8
30 -13 12 -18 12 -37 -2z"/>
<path d="M944 805 c-15 -38 21 -60 47 -29 11 14 10 18 -6 30 -24 18 -34 18
-41 -1z"/>
<path d="M1192 808 c-28 -28 2 -57 40 -37 19 10 19 11 2 30 -20 22 -26 23 -42
7z"/>
<path d="M686 795 c-6 -17 29 -39 50 -31 8 3 14 15 14 26 0 15 -7 20 -29 20
-16 0 -31 -6 -35 -15z"/>
<path d="M815 800 c-4 -7 0 -19 9 -28 13 -13 20 -14 34 -6 9 6 17 17 17 25 0
17 -50 24 -60 9z"/>
<path d="M1057 803 c-24 -24 22 -55 48 -33 25 20 18 40 -13 40 -16 0 -32 -3
-35 -7z"/>
</g>
</svg>
