<?xml version="1.0" standalone="no"?>
<!DOCTYPE svg PUBLIC "-//W3C//DTD SVG 20010904//EN"
 "http://www.w3.org/TR/2001/REC-SVG-20010904/DTD/svg10.dtd">
<svg version="1.0" xmlns="http://www.w3.org/2000/svg"
 width="207.000000pt" height="207.000000pt" viewBox="0 0 207.000000 207.000000"
 preserveAspectRatio="xMidYMid meet">
<metadata>
Created by potrace 1.10, written by Peter Selinger 2001-2011
</metadata>
<g transform="translate(0.000000,207.000000) scale(0.100000,-0.100000)"
fill="#BB00F0" stroke="none">
<path d="M1000 1954 c-25 -7 -56 -13 -70 -13 -102 -4 -320 -154 -398 -275 -41
-63 -92 -186 -92 -220 -1 -71 -42 -167 -107 -251 -5 -5 -14 -21 -21 -35 -19
-38 -61 -109 -98 -166 -39 -58 -40 -66 -18 -88 11 -12 20 -13 33 -6 10 5 31 6
47 1 16 -4 41 -3 55 3 20 7 37 6 65 -5 l39 -15 3 -153 c2 -142 4 -155 27 -191
14 -21 45 -51 71 -66 l47 -27 105 11 c57 5 111 8 118 5 10 -4 14 -37 16 -131
l3 -127 320 0 c342 0 532 7 545 21 5 5 10 164 12 354 3 221 8 356 16 375 30
82 46 428 24 536 -29 139 -150 294 -296 379 -38 22 -73 40 -78 40 -6 0 -24 6
-41 14 -102 43 -238 56 -327 30z m220 -64 c14 -5 41 -12 60 -16 72 -14 217
-100 270 -161 60 -68 85 -109 123 -204 22 -55 29 -171 18 -289 -23 -234 -32
-306 -41 -335 -6 -17 -11 -150 -11 -317 0 -158 -3 -289 -7 -292 -15 -9 -741
-16 -746 -8 -3 5 -6 46 -7 90 -3 111 0 114 122 110 114 -3 132 5 105 47 -16
25 -21 26 -65 20 -25 -3 -100 -8 -166 -10 -66 -2 -155 -6 -197 -10 -69 -7 -80
-5 -112 15 -60 36 -66 59 -66 239 0 197 3 191 -116 186 -48 -2 -92 -1 -100 2
-15 5 -19 39 -6 45 4 2 32 41 62 88 30 47 58 87 62 90 4 3 12 17 18 30 6 14
26 50 45 80 26 42 35 66 35 100 0 97 66 231 161 331 53 54 163 129 191 129 8
0 18 4 24 10 9 9 49 19 154 39 43 8 156 3 190 -9z"/>
<path d="M825 1678 c-24 -19 -27 -26 -22 -64 2 -25 14 -55 29 -72 22 -27 23
-34 17 -108 -3 -43 -5 -186 -3 -316 l4 -237 -25 -37 c-27 -40 -32 -90 -12
-118 12 -17 37 -18 331 -17 227 0 322 3 332 12 24 19 17 84 -12 118 l-25 31
-1 331 c-1 325 -1 332 20 348 13 10 23 33 27 63 7 45 6 47 -26 64 -30 16 -68
18 -321 21 -279 2 -287 2 -313 -19z m583 -43 c19 -7 15 -45 -5 -45 -10 0 -129
-1 -264 -2 -135 -1 -251 2 -257 6 -16 10 -15 33 2 43 15 8 500 6 524 -2z
m-121 -111 c17 -24 16 -100 -2 -170 -14 -55 -27 -74 -51 -74 -6 0 -23 -9 -38
-21 -19 -15 -26 -30 -26 -55 0 -45 16 -74 40 -74 20 0 90 -75 90 -97 0 -8 -4
-23 -10 -33 -9 -17 -23 -19 -143 -19 -73 0 -139 4 -146 8 -34 21 27 141 72
141 35 0 44 12 49 63 5 45 4 49 -21 60 -14 6 -42 21 -62 33 l-37 23 -6 93 c-4
53 -3 104 2 118 l10 25 133 -2 c115 -1 135 -4 146 -19z m100 -259 c0 -154 4
-298 7 -321 8 -58 -2 -84 -30 -84 -24 0 -24 1 -24 108 0 86 -4 113 -17 132
-25 36 -64 70 -79 70 -13 0 -15 4 -18 30 -1 5 15 18 34 28 19 11 45 34 58 52
20 29 22 45 22 145 0 61 3 115 7 119 4 4 14 5 23 4 13 -3 15 -39 17 -283z
m-445 228 c1 -27 1 -72 -1 -101 -4 -71 26 -131 79 -161 50 -28 51 -48 1 -68
-56 -22 -72 -63 -74 -194 -2 -104 -2 -104 -27 -104 l-25 0 3 120 c5 168 4 324
-2 435 -4 95 2 120 30 120 10 0 15 -15 16 -47z m346 -566 c16 -11 15 -42 -1
-59 -19 -19 -268 -18 -291 1 -18 15 -21 42 -6 57 11 11 280 12 298 1z m130
-130 c29 -30 -17 -36 -283 -38 -203 -1 -259 2 -266 12 -12 20 9 38 49 41 20 2
138 2 261 1 183 -1 226 -4 239 -16z"/>
<path d="M1762 1798 c2 -13 8 -23 13 -23 6 0 11 10 13 23 2 15 -2 22 -13 22
-11 0 -15 -7 -13 -22z"/>
</g>
</svg>
