<?xml version="1.0" standalone="no"?>
<!DOCTYPE svg PUBLIC "-//W3C//DTD SVG 20010904//EN"
 "http://www.w3.org/TR/2001/REC-SVG-20010904/DTD/svg10.dtd">
<svg version="1.0" xmlns="http://www.w3.org/2000/svg"
 width="171.000000pt" height="131.000000pt" viewBox="0 0 171.000000 131.000000"
 preserveAspectRatio="xMidYMid meet">
<metadata>
Created by potrace 1.10, written by Peter Selinger 2001-2011
</metadata>
<g transform="translate(0.000000,131.000000) scale(0.050000,-0.050000)"
fill="#BB00F0" stroke="none">
<path d="M1480 2306 c-744 -124 -1130 -973 -740 -1628 482 -812 1732 -615
1950 307 176 747 -464 1446 -1210 1321z m484 -112 c204 -74 516 -314 516 -397
0 -9 -266 -17 -591 -17 -847 0 -789 57 -789 -775 0 -322 -8 -585 -17 -585 -53
0 -249 236 -326 392 -383 773 403 1674 1207 1382z m602 -549 c48 -114 78 -221
70 -255 -5 -26 -104 -31 -736 -35 l-730 -5 0 123 c0 239 15 244 762 246 l602
1 32 -75z m94 -420 c-5 -672 -751 -1175 -1370 -923 l-120 48 -5 465 -6 465
751 0 750 0 0 -55z"/>
<path d="M1280 1600 c-80 -80 -32 -200 80 -200 70 0 120 46 120 111 0 59 -65
129 -120 129 -22 0 -58 -18 -80 -40z m120 -50 c33 -40 11 -90 -40 -90 -23 0
-46 14 -53 30 -11 30 24 90 53 90 8 0 26 -13 40 -30z"/>
<path d="M1561 1587 c-67 -86 -13 -187 100 -187 107 0 156 123 79 200 -56 56
-129 51 -179 -13z m159 -76 c0 -32 -69 -60 -100 -41 -28 18 -25 85 5 96 35 12
95 -22 95 -55z"/>
<path d="M1860 1600 c-48 -48 -51 -96 -9 -156 35 -49 150 -62 184 -19 97 125
-64 286 -175 175z m120 -50 c32 -39 11 -90 -37 -90 -48 0 -72 55 -41 93 29 35
47 34 78 -3z"/>
<path d="M1510 1097 c-135 -67 -167 -289 -57 -399 74 -74 229 -102 294 -53 34
25 47 17 148 -89 61 -64 123 -116 138 -116 55 0 24 59 -85 166 -102 99 -110
113 -88 154 112 209 -134 445 -350 337z m196 -59 c119 -61 145 -178 62 -276
-122 -146 -331 -39 -309 158 10 92 159 163 247 118z"/>
</g>
</svg>
