<?xml version="1.0" standalone="no"?>
<!DOCTYPE svg PUBLIC "-//W3C//DTD SVG 20010904//EN"
 "http://www.w3.org/TR/2001/REC-SVG-20010904/DTD/svg10.dtd">
<svg version="1.0" xmlns="http://www.w3.org/2000/svg"
 width="207.000000pt" height="186.000000pt" viewBox="0 0 207.000000 186.000000"
 preserveAspectRatio="xMidYMid meet">
<metadata>
Created by potrace 1.10, written by Peter Selinger 2001-2011
</metadata>
<g transform="translate(0.000000,186.000000) scale(0.100000,-0.100000)"
fill="#BB00F0" stroke="none">
<path d="M176 1650 c-56 -36 -66 -74 -66 -262 0 -160 1 -170 24 -206 24 -38
20 -65 -11 -85 -10 -6 -13 -56 -13 -193 0 -171 2 -188 20 -211 25 -32 25 -48
0 -80 -18 -24 -20 -41 -20 -212 1 -177 2 -187 23 -212 53 -63 38 -61 464 -57
308 2 395 0 420 -10 56 -24 391 -5 468 26 87 35 157 78 170 103 12 23 15 95
15 406 l0 379 -40 34 c-22 19 -40 39 -40 45 0 5 18 27 40 48 l40 37 0 184 c0
206 -6 230 -66 265 -35 21 -44 21 -717 20 -649 0 -683 -1 -711 -19z m1387 -45
c51 -21 57 -51 54 -239 -3 -158 -3 -159 -30 -182 -24 -21 -34 -22 -99 -17 -40
2 -100 10 -133 16 -92 16 -315 18 -346 2 -20 -11 -112 -14 -416 -15 l-391 -1
-16 23 c-13 18 -16 54 -16 198 0 171 1 177 23 198 l23 22 650 3 c357 1 652 3
655 5 4 1 22 -5 42 -13z m-805 -490 c7 -6 -12 -34 -30 -42 -23 -10 -47 -71
-39 -96 3 -9 6 -78 5 -154 l0 -138 -230 -3 c-126 -1 -239 0 -250 3 -37 8 -46
53 -46 210 1 80 1 154 1 165 1 11 13 28 28 37 23 16 60 19 273 23 216 5 278 4
288 -5z m637 6 c158 -33 219 -69 213 -125 -2 -16 -12 -34 -23 -40 -10 -6 -25
-17 -33 -23 -7 -7 -20 -13 -28 -13 -8 0 -22 -4 -32 -10 -50 -27 -280 -49 -401
-38 -117 11 -231 30 -231 40 0 4 -10 8 -23 8 -13 0 -28 5 -34 11 -6 6 -22 17
-35 23 -32 16 -36 61 -7 92 12 13 30 24 40 24 9 0 22 6 28 14 6 8 26 16 44 19
18 3 48 10 67 15 43 12 400 14 455 3z m-625 -219 c0 -10 74 -43 120 -53 19 -4
53 -13 75 -18 22 -6 117 -11 211 -12 193 0 312 20 386 67 33 21 42 23 49 12
23 -36 4 -178 -24 -178 -7 -1 -30 -9 -52 -20 -22 -11 -47 -19 -56 -20 -8 0
-19 -4 -25 -9 -32 -33 -465 -37 -541 -6 -20 8 -44 15 -54 15 -20 0 -99 45
-111 64 -4 6 -8 46 -8 89 0 62 3 77 15 77 8 0 15 -4 15 -8z m20 -247 c13 -14
32 -25 42 -25 10 0 36 -9 58 -20 21 -11 49 -20 62 -20 13 0 97 -3 189 -6 170
-6 279 6 354 41 89 41 106 47 120 41 28 -11 11 -133 -25 -171 -12 -13 -37 -27
-54 -31 -17 -3 -35 -10 -41 -14 -54 -40 -345 -60 -490 -33 -44 8 -94 17 -112
20 -18 3 -38 11 -44 19 -6 8 -21 14 -34 14 -12 0 -34 10 -48 23 -25 21 -27 29
-27 98 0 97 8 108 50 64z m-112 -34 c9 -1 12 -43 12 -173 l0 -173 40 -45 c21
-24 37 -46 35 -49 -3 -2 -123 -3 -267 -2 -274 3 -306 7 -323 48 -4 10 -6 92
-5 183 1 177 8 206 52 212 19 2 417 2 456 -1z m130 -211 c27 -16 61 -30 76
-30 15 0 38 -8 53 -17 22 -15 52 -17 222 -16 180 1 204 3 286 27 50 14 103 35
118 47 18 13 35 18 49 14 18 -6 20 -12 13 -49 -3 -22 -7 -50 -9 -61 -9 -85
-83 -123 -281 -148 -108 -13 -349 -6 -407 11 -18 6 -50 13 -71 17 -23 4 -54
20 -78 42 -39 35 -39 36 -39 107 0 63 4 86 17 86 1 0 25 -13 51 -30z"/>
<path d="M317 1480 c-55 -48 -63 -78 -35 -136 19 -40 30 -51 62 -62 55 -18
100 -6 137 36 28 32 31 40 25 81 -4 37 -13 53 -42 79 -50 43 -99 44 -147 2z
m111 -46 c28 -19 29 -57 2 -84 -28 -28 -64 -25 -89 6 -26 33 -26 42 1 71 25
27 54 29 86 7z"/>
<path d="M970 1432 c0 -31 18 -46 39 -32 21 12 9 55 -16 58 -19 3 -23 -1 -23
-26z"/>
<path d="M1070 1429 c0 -26 3 -30 23 -27 16 2 23 11 25 31 3 23 0 27 -22 27
-22 0 -26 -4 -26 -31z"/>
<path d="M1187 1453 c-15 -14 -7 -43 13 -43 20 0 44 32 33 44 -8 8 -38 8 -46
-1z"/>
<path d="M1284 1445 c-9 -23 3 -45 25 -45 20 0 37 32 26 50 -9 15 -45 12 -51
-5z"/>
<path d="M1385 1450 c-9 -14 14 -52 28 -47 7 2 13 16 15 30 3 21 -1 27 -17 27
-11 0 -23 -4 -26 -10z"/>
<path d="M1132 1353 c3 -38 14 -48 36 -35 9 6 10 16 1 40 -16 46 -41 42 -37
-5z"/>
<path d="M1457 1383 c-4 -3 -7 -17 -7 -30 0 -26 34 -33 44 -8 11 30 -17 59
-37 38z"/>
<path d="M1027 1373 c-13 -12 -7 -41 9 -47 22 -9 34 1 34 30 0 17 -6 24 -18
24 -10 0 -22 -3 -25 -7z"/>
<path d="M1224 1365 c-8 -21 2 -45 19 -45 8 0 20 7 27 15 10 12 10 18 0 30 -7
8 -19 15 -27 15 -7 0 -16 -7 -19 -15z"/>
<path d="M1327 1363 c-11 -10 13 -33 34 -33 12 0 19 7 19 20 0 14 -7 20 -23
20 -13 0 -27 -3 -30 -7z"/>
<path d="M329 991 c-102 -64 -68 -191 53 -204 41 -4 53 -1 82 22 27 21 35 35
40 74 4 26 2 55 -3 66 -11 21 -92 71 -113 71 -7 0 -34 -13 -59 -29z m109 -59
c30 -38 -3 -102 -52 -102 -25 0 -66 41 -66 67 0 8 11 25 25 39 19 19 31 23 52
18 16 -3 34 -13 41 -22z"/>
<path d="M347 515 c-36 -18 -51 -34 -72 -74 -16 -32 -16 -36 0 -71 21 -47 70
-84 110 -84 16 0 49 12 72 27 32 20 44 35 48 61 11 59 -17 111 -77 142 -34 18
-46 17 -81 -1z m83 -65 c11 -11 20 -31 20 -45 0 -53 -69 -85 -102 -47 -29 33
-31 61 -6 87 28 30 61 32 88 5z"/>
</g>
</svg>
